# xmcd
#
# Track frame offsets:
#	150
#	20910
#	32125
#	45410
#	59792
#	77150
#	94592
#	112220
#	127287
#	148492
#	158662
#	180262
#	196347
#	211060
#	227442
#	244609
#	263792
#	276907
#	296500
#	327732
#
# Disc length: 4730 seconds
#
# Revision: 1
# Processed by: cddbd v1.5.2PL0 Copyright (c) Steve Scherf et al.
# Submitted via: audiograbber 1.83.01
#
DISCID=31127814
DTITLE=Pussycat - The Complete Collection CD 1
DYEAR=2004
DGENRE=Pop-Folk
TTITLE0=Mississippi
TTITLE1=Georgie
TTITLE2=Boulevard De La Madelaine
TTITLE3=Mexicali Lane
TTITLE4=Help Me Living On
TTITLE5=Smile
TTITLE6=My Broken Souvenirs
TTITLE7=The Easy Way
TTITLE8=I'll Be Your Woman
TTITLE9=You Don't Know
TTITLE10=If You Ever Come To Amsterdam
TTITLE11=Same Old Song
TTITLE12=Goodbye To Lovin'
TTITLE13=Wet Day In September
TTITLE14=Hey Joe
TTITLE15=Another Day
TTITLE16=Love In September
TTITLE17=I Must Get You
TTITLE18=Alleghenny
TTITLE19=Text
EXTD=
EXTT0=
EXTT1=
EXTT2=
EXTT3=
EXTT4=
EXTT5=
EXTT6=
EXTT7=
EXTT8=
EXTT9=
EXTT10=
EXTT11=
EXTT12=
EXTT13=
EXTT14=
EXTT15=
EXTT16=
EXTT17=
EXTT18=
EXTT19=
PLAYORDER=
